# xmcd
#
# Track frame offsets: 
#        150
#        14991
#        32347
#        48051
#        66118
#        79476
#        98309
#        109438
#        126271
#        140621
#        158563
#        171027
#        186433
#
# Disc length: 2680 seconds
#
# Revision: 0
# Processed by: cddbd v1.5.2PL0 Copyright (c) Steve Scherf et al.
# Submitted via: ExactAudioCopyFreeDBPlugin 1.0
#
DISCID=ac0a760d
DTITLE=Margot and the Nuclear So and So's - Sling Shot to Heaven
DYEAR=1900
DGENRE=Blues
TTITLE0=Hello San Francisco
TTITLE1=When You're Gone
TTITLE2=Long Legged Blonde Memphis
TTITLE3=Bleary-Eye-d-Blue
TTITLE4=Lazy
TTITLE5=Flying Saucer Blues
TTITLE6=Los Angeles
TTITLE7=Gettin Fat
TTITLE8=Go to Sleep You Little Creep
TTITLE9=I Dont
TTITLE10=Swallowing Light Beams
TTITLE11=I Can't Sleep My Eyes Are Flat
TTITLE12=Wedding Song
EXTD=
EXTT0=
EXTT1=
EXTT2=
EXTT3=
EXTT4=
EXTT5=
EXTT6=
EXTT7=
EXTT8=
EXTT9=
EXTT10=
EXTT11=
EXTT12=
PLAYORDER=
